# xmcd
#
# Track frame offsets:
#	150
#	13422
#	25321
#	41788
#	55137
#	68725
#	82359
#	92917
#	107093
#	119277
#	129028
#	142199
#	155262
#	166272
#	182475
#	194350
#	207619
#	219365
#	233745
#	245148
#	256529
#	268288
#	280094
#	291838
#	304174
#	315017
#	327372
#
# Disc length: 4532 seconds
#
# Revision: 0
# Processed by: cddbd v1.5.2PL0 Copyright (c) Steve Scherf et al.
# Submitted via: EZCDAudioConverter 5.0.5.1
#
DISCID=8f11b21b
DTITLE=Acker Bilk - Acker Bilk - Clarinet and String
DYEAR=2013
DGENRE=
TTITLE0=Stranger on the Shore
TTITLE1=Above the Stars
TTITLE2=Summer Set
TTITLE3=Lonely
TTITLE4=Limelight
TTITLE5=A Taste of Honey
TTITLE6=Only You
TTITLE7=Mean to Me
TTITLE8=Greensleeves
TTITLE9=Take My Lips
TTITLE10=Sentimental Journey
TTITLE11=Is This the Blue
TTITLE12=Cielito Lindo
TTITLE13=Deep Purple
TTITLE14=I Can't Get Started
TTITLE15=Carolina Moon
TTITLE16=Soft Sands
TTITLE17=Skye Boat Song
TTITLE18=Londonerry Air
TTITLE19=Moonlight Becomes You
TTITLE20=Fancy Pants
TTITLE21=Blue Derby
TTITLE22=Evening Shadows
TTITLE23=Nature Boy
TTITLE24=Stella by Strlight
TTITLE25=La Vie En Rose
TTITLE26=Always
EXTD=
EXTT0=
EXTT1=
EXTT2=
EXTT3=
EXTT4=
EXTT5=
EXTT6=
EXTT7=
EXTT8=
EXTT9=
EXTT10=
EXTT11=
EXTT12=
EXTT13=
EXTT14=
EXTT15=
EXTT16=
EXTT17=
EXTT18=
EXTT19=
EXTT20=
EXTT21=
EXTT22=
EXTT23=
EXTT24=
EXTT25=
EXTT26=
PLAYORDER=
